<?xml version="1.0" standalone="no"?>
<!DOCTYPE svg PUBLIC "-//W3C//DTD SVG 20010904//EN"
 "http://www.w3.org/TR/2001/REC-SVG-20010904/DTD/svg10.dtd">
<svg version="1.0" xmlns="http://www.w3.org/2000/svg"
 width="700.000000pt" height="700.000000pt" viewBox="0 0 700.000000 700.000000"
 preserveAspectRatio="xMidYMid meet">
<metadata>
Created by potrace 1.11, written by Peter Selinger 2001-2013
</metadata>
<g transform="translate(0.000000,700.000000) scale(0.100000,-0.100000)"
fill="#000000" stroke="none">
<path d="M942 6986 c-474 -90 -845 -464 -927 -934 -17 -97 -19 -288 -5 -379
94 -579 605 -996 1189 -970 244 11 447 85 657 241 l66 49 208 -208 208 -208
-51 -61 c-203 -244 -335 -562 -363 -878 l-7 -78 -143 0 c-131 0 -146 -2 -164
-20 -25 -25 -25 -55 0 -80 18 -18 33 -20 164 -20 l143 0 7 -77 c16 -180 72
-384 151 -548 48 -100 159 -272 224 -345 l39 -45 -105 -107 c-95 -97 -105
-110 -99 -135 8 -32 31 -53 59 -53 12 0 64 43 126 104 l106 104 60 -50 c237
-202 562 -336 878 -364 l77 -7 0 -143 c0 -131 2 -146 20 -164 25 -25 55 -25
80 0 18 18 20 33 20 164 l0 144 78 7 c316 28 634 160 877 364 l60 50 209 -208
208 -208 -62 -84 c-164 -221 -237 -461 -227 -739 9 -224 66 -402 191 -589 163
-244 392 -405 686 -483 98 -25 326 -35 441 -19 173 25 366 105 509 212 241
179 394 422 451 712 33 169 23 267 -27 267 -10 0 -14 12 -14 39 0 56 -24 176
-53 262 -21 62 -23 75 -11 82 55 31 -66 238 -232 397 -158 152 -355 254 -579
302 -81 17 -342 17 -430 -1 -162 -32 -339 -111 -474 -211 l-84 -62 -208 208
-208 208 32 38 c226 276 354 575 382 901 l7 77 144 0 c131 0 146 2 164 20 11
11 20 29 20 40 0 11 -9 29 -20 40 -18 18 -33 20 -164 20 l-143 0 -7 78 c-28
316 -162 639 -364 877 l-50 60 104 106 c57 58 104 114 104 123 0 22 -44 66
-66 66 -9 0 -65 -47 -123 -104 l-106 -104 -45 39 c-73 65 -245 176 -343 223
-171 81 -368 136 -549 152 l-78 7 0 143 c0 131 -2 146 -20 164 -11 11 -29 20
-40 20 -11 0 -29 -9 -40 -20 -18 -18 -20 -33 -20 -164 l0 -143 -77 -7 c-316
-28 -635 -160 -879 -363 l-61 -51 -209 209 -208 208 22 28 c260 326 338 722
216 1098 -55 167 -139 309 -263 438 -158 166 -333 269 -558 328 -102 27 -372
35 -481 15z"/>
<path d="M3361 6984 c-185 -49 -330 -196 -386 -388 -24 -80 -17 -238 13 -321
62 -171 221 -311 395 -347 l57 -12 0 -146 c0 -130 2 -149 18 -163 24 -22 65
-21 85 1 14 16 17 43 17 163 l0 145 60 12 c89 19 194 78 265 148 104 104 155
227 156 375 0 165 -45 275 -160 389 -81 80 -146 119 -247 145 -72 19 -202 18
-273 -1z m229 -364 c46 -23 74 -60 89 -117 37 -135 -91 -260 -227 -223 -127
34 -178 183 -100 293 46 64 160 87 238 47z"/>
<path d="M5480 6124 c-141 -30 -268 -118 -345 -239 -54 -84 -76 -156 -82 -265
-8 -133 18 -223 97 -347 14 -21 10 -27 -88 -126 -106 -109 -121 -137 -86 -171
34 -35 62 -20 171 86 99 98 105 102 126 88 62 -40 128 -70 183 -84 88 -23 119
-21 142 9 14 18 38 28 89 39 83 17 138 43 212 99 36 28 62 41 80 39 34 -3 43
4 80 63 71 112 96 298 58 423 -64 208 -232 358 -438 391 -82 14 -118 13 -199
-5z"/>
<path d="M6379 4040 c-219 -33 -407 -209 -451 -421 l-12 -59 -146 0 c-130 0
-149 -2 -163 -18 -22 -24 -21 -65 1 -85 16 -14 43 -17 163 -17 l145 0 12 -59
c39 -186 195 -352 384 -406 67 -19 201 -22 273 -5 123 28 260 126 331 237 110
171 112 415 4 583 -46 71 -149 164 -222 199 -99 47 -217 66 -319 51z m126
-361 c87 -24 135 -88 135 -179 0 -91 -49 -155 -136 -179 -98 -26 -198 32 -224
131 -27 98 35 205 131 228 48 11 49 11 94 -1z"/>
<path d="M437 4022 c-10 -10 -17 -25 -17 -33 0 -8 -30 -26 -71 -42 -73 -30
-173 -111 -206 -168 -10 -16 -23 -27 -30 -24 -55 20 -102 -74 -110 -220 -7
-114 8 -184 58 -284 68 -136 210 -249 354 -281 66 -15 187 -15 250 1 195 47
363 218 406 412 l12 57 147 0 c130 0 149 2 163 18 22 24 21 65 -1 85 -16 14
-43 17 -163 17 l-144 0 -17 65 c-66 250 -275 415 -526 415 -73 0 -92 -3 -105
-18z m194 -358 c64 -32 106 -121 94 -195 -23 -136 -183 -199 -298 -117 -63 45
-88 157 -51 233 42 89 163 126 255 79z"/>
<path d="M1853 1938 l-104 -102 -27 17 c-56 37 -148 77 -201 88 -79 16 -223 7
-296 -19 -181 -66 -312 -221 -352 -417 -44 -219 67 -460 265 -570 175 -98 395
-93 557 13 159 104 243 247 252 432 7 134 -18 223 -97 347 -14 21 -10 27 88
126 107 110 121 137 84 170 -37 33 -61 21 -169 -85z"/>
<path d="M3457 1392 c-14 -16 -17 -43 -17 -164 l0 -146 -42 -7 c-117 -20 -254
-105 -329 -205 -77 -102 -109 -199 -109 -333 0 -243 158 -449 399 -521 32 -9
91 -16 144 -16 103 0 206 29 290 84 111 71 209 208 237 331 16 70 13 199 -5
268 -50 191 -215 349 -407 389 l-58 12 0 146 c0 130 -2 149 -18 163 -24 22
-65 21 -85 -1z m95 -672 c124 -35 173 -185 96 -293 -63 -88 -233 -88 -296 0
-74 105 -33 247 85 288 47 17 67 18 115 5z"/>
</g>
</svg>
