<svg height="512" viewBox="0 0 128 128" width="512" xmlns="http://www.w3.org/2000/svg" style="/*! width: 20px; */"><circle cx="64" cy="64" fill="#bee6ff" r="27.858"/><circle cx="21" cy="21" fill="#bee6ff" r="20"/><circle cx="102.257" cy="25.743" fill="#e678a0" r="8.897"/><circle cx="107" cy="107" fill="#bee6ff" r="20"/><path d="m121.14 105.7v11.13a10.063 10.063 0 0 1 -1.96 6.02 19.888 19.888 0 0 1 -8.18 3.75v-2.7h-1.33a8.713 8.713 0 0 1 -8.79-7.79q-.03-.39-.03-.78v-1.18h-2.81l2.81-5.63v-2.82h.01a10.1 10.1 0 0 1 9.88-10.14h.26a10.175 10.175 0 0 1 10.14 10.14z" fill="#96bef0"/><circle cx="25.743" cy="102.257" fill="#e678a0" r="8.897"/><circle cx="118.103" cy="64" fill="#f0dc78" r="8.897" transform="matrix(.707 -.707 .707 .707 -10.663 102.257)"/><circle cx="9.897" cy="64" fill="#f0dc78" r="8.897" transform="matrix(.707 -.707 .707 .707 -42.356 25.743)"/><circle cx="64" cy="9.897" fill="#f0dc78" r="8.897" transform="matrix(.707 -.707 .707 .707 11.747 48.154)"/><circle cx="64" cy="118.103" fill="#f0dc78" r="8.897" transform="matrix(.707 -.707 .707 .707 -64.766 79.846)"/><path d="m75.349 51.182a12.639 12.639 0 0 0 -18.112 17.518 16.776 16.776 0 0 1 2.314 3.527 10.577 10.577 0 0 1 1.13 4.244v6.319a3.16 3.16 0 0 0 3.16 3.16h6.319a3.16 3.16 0 0 0 3.16-3.16v-6.32a10.577 10.577 0 0 1 1.13-4.244 16.776 16.776 0 0 1 2.313-3.526 12.641 12.641 0 0 0 -1.414-17.518z" fill="#96bef0"/><path d="m57.681 73.47v6.319a3.16 3.16 0 0 0 3.16 3.16h6.319a3.16 3.16 0 0 0 3.16-3.16v-6.319z" fill="#e678a0"/><path d="m72.349 48.182a12.639 12.639 0 0 0 -18.112 17.518 16.774 16.774 0 0 1 2.314 3.527 10.577 10.577 0 0 1 1.13 4.244h12.638a10.577 10.577 0 0 1 1.13-4.244 16.774 16.774 0 0 1 2.314-3.527 12.641 12.641 0 0 0 -1.414-17.518z" fill="#f0dc78"/><path d="m61.495 79.789v-6.319h-3.814v6.319a3.16 3.16 0 0 0 3.16 3.16h3.814a3.16 3.16 0 0 1 -3.16-3.16z" fill="#fa8cb4"/><path d="m60.365 69.226a16.774 16.774 0 0 0 -2.314-3.526 12.641 12.641 0 0 1 1.414-17.517 12.5 12.5 0 0 1 6.442-2.983 12.615 12.615 0 0 0 -11.67 20.5 16.776 16.776 0 0 1 2.314 3.527 10.577 10.577 0 0 1 1.13 4.244h3.814a10.577 10.577 0 0 0 -1.13-4.245z" fill="#ffe885"/><path d="m35.14 19.7v11.13a10.063 10.063 0 0 1 -1.96 6.02 19.888 19.888 0 0 1 -8.18 3.75v-2.7h-1.33a8.713 8.713 0 0 1 -8.79-7.79q-.03-.39-.03-.78v-1.18h-2.81l2.81-5.63v-2.82h.01a10.1 10.1 0 0 1 9.88-10.14h.26a10.175 10.175 0 0 1 10.14 10.14z" fill="#96bef0"/><path d="m31.141 25.055v-9.634a10.172 10.172 0 0 0 -10.141-10.142h-.257a10.108 10.108 0 0 0 -9.886 10.142v2.815l-2.82 5.632h2.815v1.188q0 .389.031.772a8.7 8.7 0 0 0 8.782 7.793h1.335v3.1a10.15 10.15 0 0 0 10.145-10.169c-.001-.552-.002-1.063-.004-1.497z" fill="#f0f0e6"/><circle cx="23.936" cy="13.494" fill="#e678a0" r="3.505"/><path d="m117.141 111.055v-9.634a10.172 10.172 0 0 0 -10.141-10.142h-.257a10.108 10.108 0 0 0 -9.886 10.142v2.815l-2.815 5.631h2.815v1.188q0 .389.031.772a8.7 8.7 0 0 0 8.782 7.793h1.33v3.1a10.15 10.15 0 0 0 10.145-10.169c-.001-.551-.002-1.062-.004-1.496z" fill="#f0f0e6"/><circle cx="109.936" cy="99.494" fill="#e678a0" r="3.505"/><circle cx="64" cy="9.897" fill="#fffa96" r="3.472"/><circle cx="102.257" cy="25.743" fill="#fa8cb4" r="3.472"/><circle cx="118.103" cy="64" fill="#fffa96" r="3.472"/><circle cx="64" cy="118.103" fill="#fffa96" r="3.472"/><circle cx="25.743" cy="102.257" fill="#fa8cb4" r="3.472"/><circle cx="9.897" cy="64" fill="#fffa96" r="3.472"/><g fill="#785ae6"><path d="m64 92.858a28.858 28.858 0 1 1 28.858-28.858 28.891 28.891 0 0 1 -28.858 28.858zm0-55.717a26.858 26.858 0 1 0 26.858 26.859 26.889 26.889 0 0 0 -26.858-26.858z"/><path d="m21 42a21 21 0 1 1 21-21 21.024 21.024 0 0 1 -21 21zm0-40a19 19 0 1 0 19 19 19.022 19.022 0 0 0 -19-19z"/><path d="m101.5 35.6a.837.837 0 0 1 -.085 0 9.894 9.894 0 1 1 10.734-9.855 9.827 9.827 0 0 1 -1.847 5.744 1 1 0 1 1 -1.627-1.162 7.894 7.894 0 1 0 -14.32-4.582 7.938 7.938 0 0 0 7.228 7.863 1 1 0 0 1 -.083 2z"/><path d="m107 128a21 21 0 1 1 18.88-30.149 1 1 0 1 1 -1.8.873 18.973 18.973 0 1 0 1.913 8.379 1 1 0 0 1 1-1h.007a1 1 0 0 1 .995 1 21.044 21.044 0 0 1 -20.995 20.897z"/><path d="m25.743 112.153a9.9 9.9 0 1 1 9.9-9.9 9.908 9.908 0 0 1 -9.9 9.9zm0-17.794a7.9 7.9 0 1 0 7.9 7.9 7.906 7.906 0 0 0 -7.9-7.9z"/><path d="m118.1 73.9a9.9 9.9 0 1 1 7-2.9 9.832 9.832 0 0 1 -7 2.9zm0-17.793a7.9 7.9 0 1 0 5.584 2.313 7.846 7.846 0 0 0 -5.584-2.32z"/><path d="m9.9 73.9a9.832 9.832 0 0 1 -7-2.9 9.952 9.952 0 0 1 -2.035-11.028 1 1 0 0 1 1.827.814 7.941 7.941 0 0 0 1.621 8.8 7.9 7.9 0 1 0 4.53-13.4 1 1 0 0 1 -.267-1.986 9.892 9.892 0 1 1 1.324 19.7z"/><path d="m64 19.789a9.89 9.89 0 1 1 7-2.895 9.865 9.865 0 0 1 -7 2.895zm0-17.789a7.9 7.9 0 1 0 5.584 13.48 7.893 7.893 0 0 0 -5.584-13.48z"/><path d="m64 128a9.888 9.888 0 1 1 7-2.894 9.868 9.868 0 0 1 -7 2.894zm0-17.785a7.891 7.891 0 1 0 5.584 2.31 7.874 7.874 0 0 0 -5.584-2.315z"/><path d="m67.16 83.948h-6.32a4.165 4.165 0 0 1 -4.16-4.159v-6.319a1 1 0 0 1 1-1h12.639a1 1 0 0 1 1 1v6.319a4.165 4.165 0 0 1 -4.159 4.159zm-8.479-9.478v5.319a2.162 2.162 0 0 0 2.16 2.159h6.319a2.162 2.162 0 0 0 2.16-2.159v-5.319z"/><path d="m64 79.209h-6.319a1 1 0 0 1 0-2h6.319a1 1 0 0 1 0 2z"/><path d="m70.319 74.47h-12.638a1 1 0 0 1 -1-1 9.507 9.507 0 0 0 -1.036-3.82 15.645 15.645 0 0 0 -2.18-3.315 13.64 13.64 0 0 1 19.546-18.9 1 1 0 0 1 -1.324 1.5 11.639 11.639 0 0 0 -16.679 16.128 17.516 17.516 0 0 1 2.449 3.737 12.8 12.8 0 0 1 1.155 3.668h10.776a12.8 12.8 0 0 1 1.155-3.668 17.531 17.531 0 0 1 2.448-3.739 11.656 11.656 0 0 0 2.248-10.422 1 1 0 0 1 1.932-.52 13.66 13.66 0 0 1 -2.636 12.213 15.66 15.66 0 0 0 -2.18 3.315 9.507 9.507 0 0 0 -1.036 3.82 1 1 0 0 1 -1 1.003z"/><path d="m44.3 45.3a1 1 0 0 1 -.707-.293l-9.158-9.157a1 1 0 0 1 1.414-1.414l9.159 9.158a1 1 0 0 1 -.708 1.706z"/><path d="m35.142 36.143a1 1 0 0 1 -.707-.293l-11.206-11.207a1 1 0 0 1 -.293-.707v-6.936a1 1 0 0 1 2 0v6.522l10.913 10.914a1 1 0 0 1 -.707 1.707z"/><path d="m106.431 100.494h-6.937a1 1 0 0 1 -.707-.293l-15.8-15.795a1 1 0 0 1 1.414-1.414l15.5 15.5h6.522a1 1 0 1 1 0 2z"/><path d="m64 25.794a1 1 0 0 1 -1-1v-6a1 1 0 1 1 2 0v6a1 1 0 0 1 -1 1z"/><path d="m64 37.142a1 1 0 0 1 -1-1v-6a1 1 0 1 1 2 0v6a1 1 0 0 1 -1 1z"/><path d="m91.723 37.277a1 1 0 0 1 -.707-1.707l4.243-4.243a1 1 0 0 1 1.414 1.414l-4.243 4.243a1 1 0 0 1 -.707.293z"/><path d="m83.7 45.3a1 1 0 0 1 -.707-1.707l4.243-4.242a1 1 0 0 1 1.414 1.414l-4.243 4.242a1 1 0 0 1 -.707.293z"/><path d="m97.858 65h-6a1 1 0 0 1 0-2h6a1 1 0 0 1 0 2z"/><path d="m109.206 65h-6a1 1 0 1 1 0-2h6a1 1 0 0 1 0 2z"/><path d="m24.794 65h-6a1 1 0 1 1 0-2h6a1 1 0 0 1 0 2z"/><path d="m36.142 65h-6a1 1 0 1 1 0-2h6a1 1 0 0 1 0 2z"/><path d="m32.034 96.966a1 1 0 0 1 -.707-1.707l4.243-4.243a1 1 0 0 1 1.414 1.414l-4.243 4.243a1 1 0 0 1 -.707.293z"/><path d="m40.059 88.941a1 1 0 0 1 -.707-1.707l4.243-4.242a1 1 0 0 1 1.414 1.414l-4.243 4.242a1 1 0 0 1 -.707.293z"/><path d="m64 98.858a1 1 0 0 1 -1-1v-6a1 1 0 0 1 2 0v6a1 1 0 0 1 -1 1z"/><path d="m64 110.206a1 1 0 0 1 -1-1v-6a1 1 0 1 1 2 0v6a1 1 0 0 1 -1 1z"/><path d="m21 37.721a1 1 0 0 1 -1-1v-2.1h-.335a9.707 9.707 0 0 1 -9.778-8.713c-.022-.282-.034-.567-.034-.853v-.188h-1.816a1 1 0 0 1 -.895-1.447l2.711-5.42v-2.578c0-.024 0-.05 0-.074a11.164 11.164 0 0 1 10.888-11.069h.259a11.156 11.156 0 0 1 11.14 11.143v11.128a11.15 11.15 0 0 1 -11.14 11.171zm-11.345-14.854h1.2a1 1 0 0 1 1 1v1.188c0 .232.01.463.028.692a7.7 7.7 0 0 0 7.785 6.873h1.332a1 1 0 0 1 1 1v2.046a9.153 9.153 0 0 0 8.145-9.113v-1.493-9.638a9.154 9.154 0 0 0 -9.145-9.143h-.257a9.138 9.138 0 0 0 -8.886 9.143v.07 2.744a1 1 0 0 1 -.105.447z"/><path d="m23.936 18a4.5 4.5 0 1 1 4.505-4.5 4.51 4.51 0 0 1 -4.505 4.5zm0-7.01a2.5 2.5 0 1 0 2.505 2.5 2.508 2.508 0 0 0 -2.505-2.501z"/><path d="m107 123.721a1 1 0 0 1 -1-1v-2.1h-.335a9.707 9.707 0 0 1 -9.778-8.713c-.022-.282-.034-.567-.034-.853v-.188h-1.816a1 1 0 0 1 -.895-1.447l2.71-5.42v-2.578c0-.024 0-.05 0-.074a11.164 11.164 0 0 1 10.885-11.068h.263a11.156 11.156 0 0 1 11.143 11.143v11.128a11.15 11.15 0 0 1 -11.143 11.17zm-11.345-14.854h1.2a1 1 0 0 1 1 1v1.188c0 .232.01.463.028.692a7.7 7.7 0 0 0 7.785 6.873h1.332a1 1 0 0 1 1 1v2.046a9.153 9.153 0 0 0 8.145-9.113v-1.493-9.639a9.154 9.154 0 0 0 -9.145-9.142h-.257a9.138 9.138 0 0 0 -8.886 9.143v.07 2.744a1 1 0 0 1 -.105.447z"/><path d="m109.936 104a4.5 4.5 0 1 1 4.505-4.5 4.51 4.51 0 0 1 -4.505 4.5zm0-7.01a2.5 2.5 0 1 0 2.505 2.5 2.508 2.508 0 0 0 -2.505-2.501z"/></g><script xmlns=""/></svg>